# xmcd CD database file
#
# Track frame offsets:
#	150
#	15600
#	44572
#	68637
#	88762
#	99337
#	128047
#	145745
#	164467
#	179485
#
# Disc length: 2780 seconds
#
# Revision: 1
# Processed by: cddbd v1.5PL3 Copyright (c) Steve Scherf et al.
# Submitted via: CDex 1.51
#
DISCID=830ada0a
DTITLE=Mikael Santana - Point of Departure
DYEAR=1997
DGENRE=Blues
TTITLE0=Judgement Day
TTITLE1=Cookin' It Right
TTITLE2=Stratford Woman
TTITLE3=Not My Problem
TTITLE4=As Soon As We Can
TTITLE5=Just Like Champaign
TTITLE6=Be My Baby
TTITLE7=She Was A Fool
TTITLE8=I'm Fallin For You
TTITLE9=Point Of Departure
EXTD=YEAR: 1997
EXTT0=
EXTT1=
EXTT2=
EXTT3=
EXTT4=
EXTT5=
EXTT6=
EXTT7=
EXTT8=
EXTT9=
PLAYORDER=
